<?xml version="1.0" encoding="utf-8" standalone="no"?>
<!DOCTYPE svg PUBLIC "-//W3C//DTD SVG 1.1//EN"
  "http://www.w3.org/Graphics/SVG/1.1/DTD/svg11.dtd">
<svg xmlns:xlink="http://www.w3.org/1999/xlink" width="864pt" height="360pt" viewBox="0 0 864 360" xmlns="http://www.w3.org/2000/svg" version="1.1">
 <metadata>
  <rdf:RDF xmlns:dc="http://purl.org/dc/elements/1.1/" xmlns:cc="http://creativecommons.org/ns#" xmlns:rdf="http://www.w3.org/1999/02/22-rdf-syntax-ns#">
   <cc:Work>
    <dc:type rdf:resource="http://purl.org/dc/dcmitype/StillImage"/>
    <dc:date>2025-05-02T08:16:08.519511</dc:date>
    <dc:format>image/svg+xml</dc:format>
    <dc:creator>
     <cc:Agent>
      <dc:title>Matplotlib v3.10.1, https://matplotlib.org/</dc:title>
     </cc:Agent>
    </dc:creator>
   </cc:Work>
  </rdf:RDF>
 </metadata>
 <defs>
  <style type="text/css">*{stroke-linejoin: round; stroke-linecap: butt}</style>
 </defs>
 <g id="figure_1">
  <g id="patch_1">
   <path d="M 0 360 
L 864 360 
L 864 0 
L 0 0 
L 0 360 
z
" style="fill: none; opacity: 0"/>
  </g>
  <g id="axes_1">
   <g id="patch_2">
    <path d="M 108 320.4 
L 777.6 320.4 
L 777.6 43.2 
L 108 43.2 
L 108 320.4 
z
" style="fill: none; opacity: 0"/>
   </g>
   <g id="matplotlib.axis_1">
    <g id="xtick_1">
     <g id="line2d_1">
      <path d="M 128.276184 320.4 
L 128.276184 43.2 
" clip-path="url(#p8153b4ae41)" style="fill: none; stroke-dasharray: 5.12,1.28,0.8,1.28; stroke-dashoffset: 0; stroke: #b0b0b0; stroke-width: 0.8"/>
     </g>
     <g id="line2d_2">
      <defs>
       <path id="m1efbeb7097" d="M 0 0 
L 0 3.5 
" style="stroke: #a9a9a9; stroke-width: 0.8"/>
      </defs>
      <g>
       <use xlink:href="#m1efbeb7097" x="128.276184" y="320.4" style="fill: #a9a9a9; stroke: #a9a9a9; stroke-width: 0.8"/>
      </g>
     </g>
     <g id="text_1">
      <!-- 2021-07 -->
      <g style="fill: #a9a9a9" transform="translate(107.384778 334.998438) scale(0.1 -0.1)">
       <defs>
        <path id="DejaVuSans-32" d="M 1228 531 
L 3431 531 
L 3431 0 
L 469 0 
L 469 531 
Q 828 903 1448 1529 
Q 2069 2156 2228 2338 
Q 2531 2678 2651 2914 
Q 2772 3150 2772 3378 
Q 2772 3750 2511 3984 
Q 2250 4219 1831 4219 
Q 1534 4219 1204 4116 
Q 875 4013 500 3803 
L 500 4441 
Q 881 4594 1212 4672 
Q 1544 4750 1819 4750 
Q 2544 4750 2975 4387 
Q 3406 4025 3406 3419 
Q 3406 3131 3298 2873 
Q 3191 2616 2906 2266 
Q 2828 2175 2409 1742 
Q 1991 1309 1228 531 
z
" transform="scale(0.015625)"/>
        <path id="DejaVuSans-30" d="M 2034 4250 
Q 1547 4250 1301 3770 
Q 1056 3291 1056 2328 
Q 1056 1369 1301 889 
Q 1547 409 2034 409 
Q 2525 409 2770 889 
Q 3016 1369 3016 2328 
Q 3016 3291 2770 3770 
Q 2525 4250 2034 4250 
z
M 2034 4750 
Q 2819 4750 3233 4129 
Q 3647 3509 3647 2328 
Q 3647 1150 3233 529 
Q 2819 -91 2034 -91 
Q 1250 -91 836 529 
Q 422 1150 422 2328 
Q 422 3509 836 4129 
Q 1250 4750 2034 4750 
z
" transform="scale(0.015625)"/>
        <path id="DejaVuSans-31" d="M 794 531 
L 1825 531 
L 1825 4091 
L 703 3866 
L 703 4441 
L 1819 4666 
L 2450 4666 
L 2450 531 
L 3481 531 
L 3481 0 
L 794 0 
L 794 531 
z
" transform="scale(0.015625)"/>
        <path id="DejaVuSans-2d" d="M 313 2009 
L 1997 2009 
L 1997 1497 
L 313 1497 
L 313 2009 
z
" transform="scale(0.015625)"/>
        <path id="DejaVuSans-37" d="M 525 4666 
L 3525 4666 
L 3525 4397 
L 1831 0 
L 1172 0 
L 2766 4134 
L 525 4134 
L 525 4666 
z
" transform="scale(0.015625)"/>
       </defs>
       <use xlink:href="#DejaVuSans-32"/>
       <use xlink:href="#DejaVuSans-30" transform="translate(63.623047 0)"/>
       <use xlink:href="#DejaVuSans-32" transform="translate(127.246094 0)"/>
       <use xlink:href="#DejaVuSans-31" transform="translate(190.869141 0)"/>
       <use xlink:href="#DejaVuSans-2d" transform="translate(254.492188 0)"/>
       <use xlink:href="#DejaVuSans-30" transform="translate(290.576172 0)"/>
       <use xlink:href="#DejaVuSans-37" transform="translate(354.199219 0)"/>
      </g>
     </g>
    </g>
    <g id="xtick_2">
     <g id="line2d_3">
      <path d="M 209.55762 320.4 
L 209.55762 43.2 
" clip-path="url(#p8153b4ae41)" style="fill: none; stroke-dasharray: 5.12,1.28,0.8,1.28; stroke-dashoffset: 0; stroke: #b0b0b0; stroke-width: 0.8"/>
     </g>
     <g id="line2d_4">
      <g>
       <use xlink:href="#m1efbeb7097" x="209.55762" y="320.4" style="fill: #a9a9a9; stroke: #a9a9a9; stroke-width: 0.8"/>
      </g>
     </g>
     <g id="text_2">
      <!-- 2022-01 -->
      <g style="fill: #a9a9a9" transform="translate(188.666213 334.998438) scale(0.1 -0.1)">
       <use xlink:href="#DejaVuSans-32"/>
       <use xlink:href="#DejaVuSans-30" transform="translate(63.623047 0)"/>
       <use xlink:href="#DejaVuSans-32" transform="translate(127.246094 0)"/>
       <use xlink:href="#DejaVuSans-32" transform="translate(190.869141 0)"/>
       <use xlink:href="#DejaVuSans-2d" transform="translate(254.492188 0)"/>
       <use xlink:href="#DejaVuSans-30" transform="translate(290.576172 0)"/>
       <use xlink:href="#DejaVuSans-31" transform="translate(354.199219 0)"/>
      </g>
     </g>
    </g>
    <g id="xtick_3">
     <g id="line2d_5">
      <path d="M 289.513814 320.4 
L 289.513814 43.2 
" clip-path="url(#p8153b4ae41)" style="fill: none; stroke-dasharray: 5.12,1.28,0.8,1.28; stroke-dashoffset: 0; stroke: #b0b0b0; stroke-width: 0.8"/>
     </g>
     <g id="line2d_6">
      <g>
       <use xlink:href="#m1efbeb7097" x="289.513814" y="320.4" style="fill: #a9a9a9; stroke: #a9a9a9; stroke-width: 0.8"/>
      </g>
     </g>
     <g id="text_3">
      <!-- 2022-07 -->
      <g style="fill: #a9a9a9" transform="translate(268.622408 334.998438) scale(0.1 -0.1)">
       <use xlink:href="#DejaVuSans-32"/>
       <use xlink:href="#DejaVuSans-30" transform="translate(63.623047 0)"/>
       <use xlink:href="#DejaVuSans-32" transform="translate(127.246094 0)"/>
       <use xlink:href="#DejaVuSans-32" transform="translate(190.869141 0)"/>
       <use xlink:href="#DejaVuSans-2d" transform="translate(254.492188 0)"/>
       <use xlink:href="#DejaVuSans-30" transform="translate(290.576172 0)"/>
       <use xlink:href="#DejaVuSans-37" transform="translate(354.199219 0)"/>
      </g>
     </g>
    </g>
    <g id="xtick_4">
     <g id="line2d_7">
      <path d="M 370.79525 320.4 
L 370.79525 43.2 
" clip-path="url(#p8153b4ae41)" style="fill: none; stroke-dasharray: 5.12,1.28,0.8,1.28; stroke-dashoffset: 0; stroke: #b0b0b0; stroke-width: 0.8"/>
     </g>
     <g id="line2d_8">
      <g>
       <use xlink:href="#m1efbeb7097" x="370.79525" y="320.4" style="fill: #a9a9a9; stroke: #a9a9a9; stroke-width: 0.8"/>
      </g>
     </g>
     <g id="text_4">
      <!-- 2023-01 -->
      <g style="fill: #a9a9a9" transform="translate(349.903844 334.998438) scale(0.1 -0.1)">
       <defs>
        <path id="DejaVuSans-33" d="M 2597 2516 
Q 3050 2419 3304 2112 
Q 3559 1806 3559 1356 
Q 3559 666 3084 287 
Q 2609 -91 1734 -91 
Q 1441 -91 1130 -33 
Q 819 25 488 141 
L 488 750 
Q 750 597 1062 519 
Q 1375 441 1716 441 
Q 2309 441 2620 675 
Q 2931 909 2931 1356 
Q 2931 1769 2642 2001 
Q 2353 2234 1838 2234 
L 1294 2234 
L 1294 2753 
L 1863 2753 
Q 2328 2753 2575 2939 
Q 2822 3125 2822 3475 
Q 2822 3834 2567 4026 
Q 2313 4219 1838 4219 
Q 1578 4219 1281 4162 
Q 984 4106 628 3988 
L 628 4550 
Q 988 4650 1302 4700 
Q 1616 4750 1894 4750 
Q 2613 4750 3031 4423 
Q 3450 4097 3450 3541 
Q 3450 3153 3228 2886 
Q 3006 2619 2597 2516 
z
" transform="scale(0.015625)"/>
       </defs>
       <use xlink:href="#DejaVuSans-32"/>
       <use xlink:href="#DejaVuSans-30" transform="translate(63.623047 0)"/>
       <use xlink:href="#DejaVuSans-32" transform="translate(127.246094 0)"/>
       <use xlink:href="#DejaVuSans-33" transform="translate(190.869141 0)"/>
       <use xlink:href="#DejaVuSans-2d" transform="translate(254.492188 0)"/>
       <use xlink:href="#DejaVuSans-30" transform="translate(290.576172 0)"/>
       <use xlink:href="#DejaVuSans-31" transform="translate(354.199219 0)"/>
      </g>
     </g>
    </g>
    <g id="xtick_5">
     <g id="line2d_9">
      <path d="M 450.751445 320.4 
L 450.751445 43.2 
" clip-path="url(#p8153b4ae41)" style="fill: none; stroke-dasharray: 5.12,1.28,0.8,1.28; stroke-dashoffset: 0; stroke: #b0b0b0; stroke-width: 0.8"/>
     </g>
     <g id="line2d_10">
      <g>
       <use xlink:href="#m1efbeb7097" x="450.751445" y="320.4" style="fill: #a9a9a9; stroke: #a9a9a9; stroke-width: 0.8"/>
      </g>
     </g>
     <g id="text_5">
      <!-- 2023-07 -->
      <g style="fill: #a9a9a9" transform="translate(429.860039 334.998438) scale(0.1 -0.1)">
       <use xlink:href="#DejaVuSans-32"/>
       <use xlink:href="#DejaVuSans-30" transform="translate(63.623047 0)"/>
       <use xlink:href="#DejaVuSans-32" transform="translate(127.246094 0)"/>
       <use xlink:href="#DejaVuSans-33" transform="translate(190.869141 0)"/>
       <use xlink:href="#DejaVuSans-2d" transform="translate(254.492188 0)"/>
       <use xlink:href="#DejaVuSans-30" transform="translate(290.576172 0)"/>
       <use xlink:href="#DejaVuSans-37" transform="translate(354.199219 0)"/>
      </g>
     </g>
    </g>
    <g id="xtick_6">
     <g id="line2d_11">
      <path d="M 532.03288 320.4 
L 532.03288 43.2 
" clip-path="url(#p8153b4ae41)" style="fill: none; stroke-dasharray: 5.12,1.28,0.8,1.28; stroke-dashoffset: 0; stroke: #b0b0b0; stroke-width: 0.8"/>
     </g>
     <g id="line2d_12">
      <g>
       <use xlink:href="#m1efbeb7097" x="532.03288" y="320.4" style="fill: #a9a9a9; stroke: #a9a9a9; stroke-width: 0.8"/>
      </g>
     </g>
     <g id="text_6">
      <!-- 2024-01 -->
      <g style="fill: #a9a9a9" transform="translate(511.141474 334.998438) scale(0.1 -0.1)">
       <defs>
        <path id="DejaVuSans-34" d="M 2419 4116 
L 825 1625 
L 2419 1625 
L 2419 4116 
z
M 2253 4666 
L 3047 4666 
L 3047 1625 
L 3713 1625 
L 3713 1100 
L 3047 1100 
L 3047 0 
L 2419 0 
L 2419 1100 
L 313 1100 
L 313 1709 
L 2253 4666 
z
" transform="scale(0.015625)"/>
       </defs>
       <use xlink:href="#DejaVuSans-32"/>
       <use xlink:href="#DejaVuSans-30" transform="translate(63.623047 0)"/>
       <use xlink:href="#DejaVuSans-32" transform="translate(127.246094 0)"/>
       <use xlink:href="#DejaVuSans-34" transform="translate(190.869141 0)"/>
       <use xlink:href="#DejaVuSans-2d" transform="translate(254.492188 0)"/>
       <use xlink:href="#DejaVuSans-30" transform="translate(290.576172 0)"/>
       <use xlink:href="#DejaVuSans-31" transform="translate(354.199219 0)"/>
      </g>
     </g>
    </g>
    <g id="xtick_7">
     <g id="line2d_13">
      <path d="M 612.430822 320.4 
L 612.430822 43.2 
" clip-path="url(#p8153b4ae41)" style="fill: none; stroke-dasharray: 5.12,1.28,0.8,1.28; stroke-dashoffset: 0; stroke: #b0b0b0; stroke-width: 0.8"/>
     </g>
     <g id="line2d_14">
      <g>
       <use xlink:href="#m1efbeb7097" x="612.430822" y="320.4" style="fill: #a9a9a9; stroke: #a9a9a9; stroke-width: 0.8"/>
      </g>
     </g>
     <g id="text_7">
      <!-- 2024-07 -->
      <g style="fill: #a9a9a9" transform="translate(591.539416 334.998438) scale(0.1 -0.1)">
       <use xlink:href="#DejaVuSans-32"/>
       <use xlink:href="#DejaVuSans-30" transform="translate(63.623047 0)"/>
       <use xlink:href="#DejaVuSans-32" transform="translate(127.246094 0)"/>
       <use xlink:href="#DejaVuSans-34" transform="translate(190.869141 0)"/>
       <use xlink:href="#DejaVuSans-2d" transform="translate(254.492188 0)"/>
       <use xlink:href="#DejaVuSans-30" transform="translate(290.576172 0)"/>
       <use xlink:href="#DejaVuSans-37" transform="translate(354.199219 0)"/>
      </g>
     </g>
    </g>
    <g id="xtick_8">
     <g id="line2d_15">
      <path d="M 693.712258 320.4 
L 693.712258 43.2 
" clip-path="url(#p8153b4ae41)" style="fill: none; stroke-dasharray: 5.12,1.28,0.8,1.28; stroke-dashoffset: 0; stroke: #b0b0b0; stroke-width: 0.8"/>
     </g>
     <g id="line2d_16">
      <g>
       <use xlink:href="#m1efbeb7097" x="693.712258" y="320.4" style="fill: #a9a9a9; stroke: #a9a9a9; stroke-width: 0.8"/>
      </g>
     </g>
     <g id="text_8">
      <!-- 2025-01 -->
      <g style="fill: #a9a9a9" transform="translate(672.820851 334.998438) scale(0.1 -0.1)">
       <defs>
        <path id="DejaVuSans-35" d="M 691 4666 
L 3169 4666 
L 3169 4134 
L 1269 4134 
L 1269 2991 
Q 1406 3038 1543 3061 
Q 1681 3084 1819 3084 
Q 2600 3084 3056 2656 
Q 3513 2228 3513 1497 
Q 3513 744 3044 326 
Q 2575 -91 1722 -91 
Q 1428 -91 1123 -41 
Q 819 9 494 109 
L 494 744 
Q 775 591 1075 516 
Q 1375 441 1709 441 
Q 2250 441 2565 725 
Q 2881 1009 2881 1497 
Q 2881 1984 2565 2268 
Q 2250 2553 1709 2553 
Q 1456 2553 1204 2497 
Q 953 2441 691 2322 
L 691 4666 
z
" transform="scale(0.015625)"/>
       </defs>
       <use xlink:href="#DejaVuSans-32"/>
       <use xlink:href="#DejaVuSans-30" transform="translate(63.623047 0)"/>
       <use xlink:href="#DejaVuSans-32" transform="translate(127.246094 0)"/>
       <use xlink:href="#DejaVuSans-35" transform="translate(190.869141 0)"/>
       <use xlink:href="#DejaVuSans-2d" transform="translate(254.492188 0)"/>
       <use xlink:href="#DejaVuSans-30" transform="translate(290.576172 0)"/>
       <use xlink:href="#DejaVuSans-31" transform="translate(354.199219 0)"/>
      </g>
     </g>
    </g>
    <g id="xtick_9">
     <g id="line2d_17">
      <path d="M 773.668452 320.4 
L 773.668452 43.2 
" clip-path="url(#p8153b4ae41)" style="fill: none; stroke-dasharray: 5.12,1.28,0.8,1.28; stroke-dashoffset: 0; stroke: #b0b0b0; stroke-width: 0.8"/>
     </g>
     <g id="line2d_18">
      <g>
       <use xlink:href="#m1efbeb7097" x="773.668452" y="320.4" style="fill: #a9a9a9; stroke: #a9a9a9; stroke-width: 0.8"/>
      </g>
     </g>
     <g id="text_9">
      <!-- 2025-07 -->
      <g style="fill: #a9a9a9" transform="translate(752.777046 334.998438) scale(0.1 -0.1)">
       <use xlink:href="#DejaVuSans-32"/>
       <use xlink:href="#DejaVuSans-30" transform="translate(63.623047 0)"/>
       <use xlink:href="#DejaVuSans-32" transform="translate(127.246094 0)"/>
       <use xlink:href="#DejaVuSans-35" transform="translate(190.869141 0)"/>
       <use xlink:href="#DejaVuSans-2d" transform="translate(254.492188 0)"/>
       <use xlink:href="#DejaVuSans-30" transform="translate(290.576172 0)"/>
       <use xlink:href="#DejaVuSans-37" transform="translate(354.199219 0)"/>
      </g>
     </g>
    </g>
   </g>
   <g id="matplotlib.axis_2">
    <g id="ytick_1">
     <g id="line2d_19">
      <path d="M 108 307.833241 
L 777.6 307.833241 
" clip-path="url(#p8153b4ae41)" style="fill: none; stroke-dasharray: 5.12,1.28,0.8,1.28; stroke-dashoffset: 0; stroke: #b0b0b0; stroke-width: 0.8"/>
     </g>
     <g id="line2d_20">
      <defs>
       <path id="m02b837e515" d="M 0 0 
L -3.5 0 
" style="stroke: #a9a9a9; stroke-width: 0.8"/>
      </defs>
      <g>
       <use xlink:href="#m02b837e515" x="108" y="307.833241" style="fill: #a9a9a9; stroke: #a9a9a9; stroke-width: 0.8"/>
      </g>
     </g>
     <g id="text_10">
      <!-- 0 -->
      <g style="fill: #a9a9a9" transform="translate(94.6375 311.63246) scale(0.1 -0.1)">
       <use xlink:href="#DejaVuSans-30"/>
      </g>
     </g>
    </g>
    <g id="ytick_2">
     <g id="line2d_21">
      <path d="M 108 274.592244 
L 777.6 274.592244 
" clip-path="url(#p8153b4ae41)" style="fill: none; stroke-dasharray: 5.12,1.28,0.8,1.28; stroke-dashoffset: 0; stroke: #b0b0b0; stroke-width: 0.8"/>
     </g>
     <g id="line2d_22">
      <g>
       <use xlink:href="#m02b837e515" x="108" y="274.592244" style="fill: #a9a9a9; stroke: #a9a9a9; stroke-width: 0.8"/>
      </g>
     </g>
     <g id="text_11">
      <!-- 1000 -->
      <g style="fill: #a9a9a9" transform="translate(75.55 278.391463) scale(0.1 -0.1)">
       <use xlink:href="#DejaVuSans-31"/>
       <use xlink:href="#DejaVuSans-30" transform="translate(63.623047 0)"/>
       <use xlink:href="#DejaVuSans-30" transform="translate(127.246094 0)"/>
       <use xlink:href="#DejaVuSans-30" transform="translate(190.869141 0)"/>
      </g>
     </g>
    </g>
    <g id="ytick_3">
     <g id="line2d_23">
      <path d="M 108 241.351247 
L 777.6 241.351247 
" clip-path="url(#p8153b4ae41)" style="fill: none; stroke-dasharray: 5.12,1.28,0.8,1.28; stroke-dashoffset: 0; stroke: #b0b0b0; stroke-width: 0.8"/>
     </g>
     <g id="line2d_24">
      <g>
       <use xlink:href="#m02b837e515" x="108" y="241.351247" style="fill: #a9a9a9; stroke: #a9a9a9; stroke-width: 0.8"/>
      </g>
     </g>
     <g id="text_12">
      <!-- 2000 -->
      <g style="fill: #a9a9a9" transform="translate(75.55 245.150465) scale(0.1 -0.1)">
       <use xlink:href="#DejaVuSans-32"/>
       <use xlink:href="#DejaVuSans-30" transform="translate(63.623047 0)"/>
       <use xlink:href="#DejaVuSans-30" transform="translate(127.246094 0)"/>
       <use xlink:href="#DejaVuSans-30" transform="translate(190.869141 0)"/>
      </g>
     </g>
    </g>
    <g id="ytick_4">
     <g id="line2d_25">
      <path d="M 108 208.110249 
L 777.6 208.110249 
" clip-path="url(#p8153b4ae41)" style="fill: none; stroke-dasharray: 5.12,1.28,0.8,1.28; stroke-dashoffset: 0; stroke: #b0b0b0; stroke-width: 0.8"/>
     </g>
     <g id="line2d_26">
      <g>
       <use xlink:href="#m02b837e515" x="108" y="208.110249" style="fill: #a9a9a9; stroke: #a9a9a9; stroke-width: 0.8"/>
      </g>
     </g>
     <g id="text_13">
      <!-- 3000 -->
      <g style="fill: #a9a9a9" transform="translate(75.55 211.909468) scale(0.1 -0.1)">
       <use xlink:href="#DejaVuSans-33"/>
       <use xlink:href="#DejaVuSans-30" transform="translate(63.623047 0)"/>
       <use xlink:href="#DejaVuSans-30" transform="translate(127.246094 0)"/>
       <use xlink:href="#DejaVuSans-30" transform="translate(190.869141 0)"/>
      </g>
     </g>
    </g>
    <g id="ytick_5">
     <g id="line2d_27">
      <path d="M 108 174.869252 
L 777.6 174.869252 
" clip-path="url(#p8153b4ae41)" style="fill: none; stroke-dasharray: 5.12,1.28,0.8,1.28; stroke-dashoffset: 0; stroke: #b0b0b0; stroke-width: 0.8"/>
     </g>
     <g id="line2d_28">
      <g>
       <use xlink:href="#m02b837e515" x="108" y="174.869252" style="fill: #a9a9a9; stroke: #a9a9a9; stroke-width: 0.8"/>
      </g>
     </g>
     <g id="text_14">
      <!-- 4000 -->
      <g style="fill: #a9a9a9" transform="translate(75.55 178.668471) scale(0.1 -0.1)">
       <use xlink:href="#DejaVuSans-34"/>
       <use xlink:href="#DejaVuSans-30" transform="translate(63.623047 0)"/>
       <use xlink:href="#DejaVuSans-30" transform="translate(127.246094 0)"/>
       <use xlink:href="#DejaVuSans-30" transform="translate(190.869141 0)"/>
      </g>
     </g>
    </g>
    <g id="ytick_6">
     <g id="line2d_29">
      <path d="M 108 141.628255 
L 777.6 141.628255 
" clip-path="url(#p8153b4ae41)" style="fill: none; stroke-dasharray: 5.12,1.28,0.8,1.28; stroke-dashoffset: 0; stroke: #b0b0b0; stroke-width: 0.8"/>
     </g>
     <g id="line2d_30">
      <g>
       <use xlink:href="#m02b837e515" x="108" y="141.628255" style="fill: #a9a9a9; stroke: #a9a9a9; stroke-width: 0.8"/>
      </g>
     </g>
     <g id="text_15">
      <!-- 5000 -->
      <g style="fill: #a9a9a9" transform="translate(75.55 145.427474) scale(0.1 -0.1)">
       <use xlink:href="#DejaVuSans-35"/>
       <use xlink:href="#DejaVuSans-30" transform="translate(63.623047 0)"/>
       <use xlink:href="#DejaVuSans-30" transform="translate(127.246094 0)"/>
       <use xlink:href="#DejaVuSans-30" transform="translate(190.869141 0)"/>
      </g>
     </g>
    </g>
    <g id="ytick_7">
     <g id="line2d_31">
      <path d="M 108 108.387258 
L 777.6 108.387258 
" clip-path="url(#p8153b4ae41)" style="fill: none; stroke-dasharray: 5.12,1.28,0.8,1.28; stroke-dashoffset: 0; stroke: #b0b0b0; stroke-width: 0.8"/>
     </g>
     <g id="line2d_32">
      <g>
       <use xlink:href="#m02b837e515" x="108" y="108.387258" style="fill: #a9a9a9; stroke: #a9a9a9; stroke-width: 0.8"/>
      </g>
     </g>
     <g id="text_16">
      <!-- 6000 -->
      <g style="fill: #a9a9a9" transform="translate(75.55 112.186476) scale(0.1 -0.1)">
       <defs>
        <path id="DejaVuSans-36" d="M 2113 2584 
Q 1688 2584 1439 2293 
Q 1191 2003 1191 1497 
Q 1191 994 1439 701 
Q 1688 409 2113 409 
Q 2538 409 2786 701 
Q 3034 994 3034 1497 
Q 3034 2003 2786 2293 
Q 2538 2584 2113 2584 
z
M 3366 4563 
L 3366 3988 
Q 3128 4100 2886 4159 
Q 2644 4219 2406 4219 
Q 1781 4219 1451 3797 
Q 1122 3375 1075 2522 
Q 1259 2794 1537 2939 
Q 1816 3084 2150 3084 
Q 2853 3084 3261 2657 
Q 3669 2231 3669 1497 
Q 3669 778 3244 343 
Q 2819 -91 2113 -91 
Q 1303 -91 875 529 
Q 447 1150 447 2328 
Q 447 3434 972 4092 
Q 1497 4750 2381 4750 
Q 2619 4750 2861 4703 
Q 3103 4656 3366 4563 
z
" transform="scale(0.015625)"/>
       </defs>
       <use xlink:href="#DejaVuSans-36"/>
       <use xlink:href="#DejaVuSans-30" transform="translate(63.623047 0)"/>
       <use xlink:href="#DejaVuSans-30" transform="translate(127.246094 0)"/>
       <use xlink:href="#DejaVuSans-30" transform="translate(190.869141 0)"/>
      </g>
     </g>
    </g>
    <g id="ytick_8">
     <g id="line2d_33">
      <path d="M 108 75.14626 
L 777.6 75.14626 
" clip-path="url(#p8153b4ae41)" style="fill: none; stroke-dasharray: 5.12,1.28,0.8,1.28; stroke-dashoffset: 0; stroke: #b0b0b0; stroke-width: 0.8"/>
     </g>
     <g id="line2d_34">
      <g>
       <use xlink:href="#m02b837e515" x="108" y="75.14626" style="fill: #a9a9a9; stroke: #a9a9a9; stroke-width: 0.8"/>
      </g>
     </g>
     <g id="text_17">
      <!-- 7000 -->
      <g style="fill: #a9a9a9" transform="translate(75.55 78.945479) scale(0.1 -0.1)">
       <use xlink:href="#DejaVuSans-37"/>
       <use xlink:href="#DejaVuSans-30" transform="translate(63.623047 0)"/>
       <use xlink:href="#DejaVuSans-30" transform="translate(127.246094 0)"/>
       <use xlink:href="#DejaVuSans-30" transform="translate(190.869141 0)"/>
      </g>
     </g>
    </g>
   </g>
   <g id="line2d_35">
    <path d="M 138.436364 307.733518 
L 141.086845 307.500831 
L 141.528592 307.301385 
L 143.29558 307.068698 
L 145.062568 306.703047 
L 145.946061 306.570083 
L 148.154796 306.370637 
L 149.03829 306.004986 
L 149.480037 305.406648 
L 149.921784 305.107479 
L 150.363531 304.110249 
L 150.805278 304.043767 
L 151.247025 303.678116 
L 152.130519 303.212742 
L 153.897506 301.750139 
L 155.664494 300.852632 
L 156.989735 300.221053 
L 157.431482 299.489751 
L 158.314976 298.824931 
L 158.756723 298.625485 
L 163.174192 297.960665 
L 163.615939 297.761219 
L 166.708167 297.495291 
L 168.475155 297.063158 
L 172.00913 296.564543 
L 172.450877 296.331856 
L 172.892624 296.265374 
L 173.776118 295.966205 
L 176.868347 295.434349 
L 177.751841 295.168421 
L 181.727563 294.47036 
L 182.611057 294.270914 
L 183.494551 294.237673 
L 185.261538 293.80554 
L 185.703285 293.173961 
L 187.028526 292.642105 
L 188.353767 292.276454 
L 188.795514 292.043767 
L 189.679008 291.877562 
L 191.445996 291.345706 
L 192.329489 291.279224 
L 193.212983 291.046537 
L 194.979971 290.581163 
L 195.421718 290.547922 
L 196.305212 290.115789 
L 196.746959 290.049307 
L 197.188706 289.81662 
L 202.047922 288.985596 
L 203.81491 288.45374 
L 204.256657 288.154571 
L 206.465391 287.423269 
L 207.348885 286.79169 
L 208.674126 286.525762 
L 218.392558 283.633795 
L 218.834305 283.600554 
L 220.159546 283.201662 
L 220.601293 283.201662 
L 221.04304 283.002216 
L 221.926534 282.902493 
L 222.368281 282.736288 
L 224.135269 282.669806 
L 225.018762 282.503601 
L 225.902256 282.038227 
L 227.227497 281.539612 
L 228.110991 281.074238 
L 228.994485 280.608864 
L 229.877979 280.309695 
L 230.319726 280.176731 
L 231.203219 279.611634 
L 231.644966 279.113019 
L 232.52846 277.716898 
L 232.970207 277.583934 
L 233.411954 277.583934 
L 234.737195 276.78615 
L 235.178942 276.553463 
L 235.620689 276.45374 
L 236.062436 276.021607 
L 236.94593 275.655956 
L 237.829423 275.223823 
L 240.038158 272.331856 
L 242.68864 270.869252 
L 243.572134 270.13795 
L 244.01388 269.872022 
L 244.455627 269.240443 
L 244.897374 268.209972 
L 245.339121 267.511911 
L 245.780868 267.14626 
L 246.222615 266.946814 
L 249.756591 263.622715 
L 250.640084 262.79169 
L 253.290566 261.096399 
L 253.732313 260.930194 
L 255.499301 259.866482 
L 255.941048 259.667036 
L 258.149782 257.606094 
L 259.033276 257.240443 
L 259.91677 256.608864 
L 260.358517 256.342936 
L 260.800264 256.276454 
L 262.125505 255.511911 
L 262.567252 255.013296 
L 264.775986 253.78338 
L 265.217733 253.617175 
L 266.542974 252.686427 
L 273.169178 250.293075 
L 274.052672 249.46205 
L 275.377913 248.79723 
L 276.261407 248.232133 
L 277.1449 247.966205 
L 277.586647 247.667036 
L 278.028394 247.534072 
L 279.353635 246.636565 
L 281.56237 246.13795 
L 282.887611 245.340166 
L 284.212851 245.040997 
L 284.654598 244.941274 
L 285.979839 243.910803 
L 287.746827 243.412188 
L 288.188574 243.046537 
L 290.839055 242.115789 
L 291.722549 241.949584 
L 292.606043 241.583934 
L 295.698272 240.420499 
L 296.581765 240.287535 
L 297.907006 239.822161 
L 300.115741 238.725208 
L 301.882729 237.727978 
L 305.416704 236.232133 
L 305.858451 236.165651 
L 306.741945 235.600554 
L 307.625439 235.367867 
L 308.95068 234.836011 
L 310.717667 234.603324 
L 311.601161 234.13795 
L 312.042908 233.739058 
L 312.484655 232.941274 
L 314.251643 232.442659 
L 315.576883 231.744598 
L 316.460377 231.445429 
L 317.343871 230.980055 
L 319.994353 229.883102 
L 320.877847 229.683657 
L 321.761341 229.218283 
L 322.203087 229.018837 
L 322.644834 228.952355 
L 324.853569 227.855402 
L 325.737063 227.290305 
L 327.062304 227.024377 
L 329.271038 226.45928 
L 329.712785 226.093629 
L 330.596279 225.79446 
L 332.805014 224.896953 
L 333.246761 224.564543 
L 333.688508 224.398338 
L 334.572002 223.899723 
L 336.338989 223.334626 
L 337.222483 222.769529 
L 337.66423 222.304155 
L 338.105977 222.038227 
L 338.547724 221.938504 
L 339.431218 221.207202 
L 339.872965 221.14072 
L 340.314712 220.409418 
L 340.756459 220.209972 
L 341.198206 219.844321 
L 341.639953 219.777839 
L 342.523446 219.212742 
L 343.40694 218.913573 
L 343.848687 218.581163 
L 344.290434 218.414958 
L 346.057422 217.218283 
L 347.382663 216.520222 
L 348.266156 216.287535 
L 349.14965 215.78892 
L 349.591397 215.024377 
L 350.474891 214.359557 
L 350.916638 214.259834 
L 353.56712 212.963435 
L 354.450614 212.597784 
L 355.334107 211.966205 
L 356.217601 211.068698 
L 360.193324 207.944044 
L 360.635071 207.578393 
L 361.518564 207.279224 
L 362.402058 206.680886 
L 363.727299 205.982825 
L 364.169046 205.916343 
L 365.494287 205.185042 
L 366.377781 204.619945 
L 370.79525 202.957895 
L 371.236997 202.592244 
L 373.003985 201.894183 
L 373.445732 201.761219 
L 374.329225 201.162881 
L 375.212719 200.79723 
L 376.096213 200.165651 
L 376.979707 198.370637 
L 377.863201 197.306925 
L 379.188442 196.608864 
L 380.071936 196.243213 
L 380.513683 196.176731 
L 380.955429 195.910803 
L 383.164164 195.179501 
L 383.605911 194.980055 
L 384.489405 194.381717 
L 385.814646 193.81662 
L 386.69814 193.318006 
L 387.581633 192.78615 
L 388.02338 192.486981 
L 388.465127 191.988366 
L 389.790368 191.223823 
L 390.232115 191.057618 
L 391.115609 190.525762 
L 392.882597 189.528532 
L 393.324344 189.428809 
L 393.766091 189.063158 
L 396.858319 188.065928 
L 397.300066 187.733518 
L 398.18356 187.46759 
L 399.067054 187.101939 
L 399.508801 186.736288 
L 401.275788 186.104709 
L 402.159282 185.47313 
L 403.042776 185.107479 
L 403.92627 184.409418 
L 404.809764 184.14349 
L 405.251511 183.744598 
L 405.693258 183.678116 
L 406.576752 182.980055 
L 407.460245 182.514681 
L 407.901992 182.315235 
L 408.343739 181.849861 
L 411.435968 180.586704 
L 412.319462 180.187812 
L 413.644702 179.755679 
L 414.528196 179.622715 
L 414.969943 179.423269 
L 415.41169 179.356787 
L 416.295184 178.957895 
L 416.736931 178.924654 
L 418.503919 178.259834 
L 419.82916 177.295845 
L 420.270906 177.12964 
L 421.1544 176.631025 
L 421.596147 176.498061 
L 424.246629 175.002216 
L 424.688376 174.902493 
L 426.013617 174.104709 
L 427.338857 173.639335 
L 428.222351 173.340166 
L 429.989339 172.741828 
L 430.872833 172.442659 
L 432.639821 172.077008 
L 433.081567 171.877562 
L 433.965061 171.644875 
L 434.406808 171.445429 
L 434.848555 171.378947 
L 435.290302 171.14626 
L 436.173796 170.980055 
L 437.499037 170.48144 
L 438.382531 170.381717 
L 439.707771 170.082548 
L 441.916506 169.683657 
L 453.401926 166.226593 
L 453.843673 165.761219 
L 454.727167 165.395568 
L 458.261143 164.032687 
L 458.70289 163.766759 
L 460.02813 163.367867 
L 460.911624 163.13518 
L 461.353371 162.836011 
L 461.795118 162.736288 
L 462.236865 162.337396 
L 463.562106 162.071468 
L 464.4456 161.639335 
L 464.887347 161.107479 
L 466.654334 160.675346 
L 469.746563 160.010526 
L 470.18831 160.010526 
L 470.630057 159.81108 
L 472.397044 159.47867 
L 472.838791 159.279224 
L 474.605779 158.946814 
L 475.489273 158.581163 
L 476.372767 158.414958 
L 478.581502 157.849861 
L 480.348489 157.284765 
L 480.790236 157.185042 
L 481.231983 156.952355 
L 482.115477 156.719668 
L 482.998971 156.354017 
L 483.882465 156.021607 
L 484.324212 155.722438 
L 485.207706 155.45651 
L 488.299934 154.293075 
L 490.066922 154.060388 
L 493.600897 152.763989 
L 494.042644 152.431579 
L 494.484391 152.331856 
L 494.926138 152.099169 
L 495.367885 152.065928 
L 500.227101 150.304155 
L 502.435836 149.705817 
L 503.31933 149.273684 
L 504.644571 148.974515 
L 506.411558 147.511911 
L 508.178546 146.747368 
L 509.06204 146.348476 
L 511.712521 145.318006 
L 512.154268 145.018837 
L 514.363003 144.287535 
L 515.688244 143.522992 
L 516.129991 143.423269 
L 517.896978 142.426039 
L 519.663966 141.628255 
L 520.105713 141.295845 
L 520.989207 140.996676 
L 523.197942 139.866482 
L 524.523182 139.401108 
L 526.29017 138.669806 
L 527.615411 138.171191 
L 528.057158 138.004986 
L 528.940652 137.872022 
L 529.382399 137.572853 
L 531.149386 137.207202 
L 532.03288 136.841551 
L 533.799868 136.010526 
L 539.984325 133.284765 
L 541.309566 132.852632 
L 541.751313 132.553463 
L 542.634807 132.45374 
L 543.076554 132.154571 
L 543.960047 131.988366 
L 544.843541 131.556233 
L 545.285288 131.356787 
L 546.168782 131.1241 
L 547.052276 130.858172 
L 548.377517 130.359557 
L 549.702758 129.927424 
L 551.027998 129.628255 
L 552.794986 128.896953 
L 553.67848 128.398338 
L 555.445468 127.500831 
L 556.328962 127.301385 
L 556.770709 127.035457 
L 557.212455 126.935734 
L 558.537696 126.171191 
L 559.42119 125.80554 
L 561.188178 125.107479 
L 563.396913 124.342936 
L 564.280406 123.877562 
L 566.489141 123.113019 
L 569.139623 122.016066 
L 570.90661 121.185042 
L 575.32408 119.45651 
L 576.207574 119.024377 
L 576.64932 118.924654 
L 577.091067 118.691967 
L 578.858055 118.193352 
L 580.625043 116.730748 
L 581.06679 116.597784 
L 581.508537 116.331856 
L 582.833778 115.966205 
L 583.275524 115.633795 
L 583.717271 115.534072 
L 584.600765 114.968975 
L 585.926006 114.270914 
L 586.8095 113.905263 
L 587.251247 113.672576 
L 588.576488 113.373407 
L 590.785222 112.608864 
L 591.668716 112.309695 
L 592.993957 111.644875 
L 593.877451 111.212742 
L 594.760945 110.980055 
L 596.086186 110.348476 
L 600.061908 108.852632 
L 601.387149 108.021607 
L 601.828896 107.921884 
L 602.712389 107.489751 
L 603.595883 107.157341 
L 604.03763 106.758449 
L 604.921124 106.392798 
L 606.246365 105.927424 
L 606.688112 105.561773 
L 607.129859 105.528532 
L 608.013353 105.262604 
L 608.896847 104.963435 
L 609.338593 104.763989 
L 609.78034 104.697507 
L 611.105581 104.198892 
L 612.430822 103.700277 
L 614.19781 102.902493 
L 615.081304 102.669806 
L 615.523051 102.403878 
L 616.406544 102.171191 
L 617.731785 101.406648 
L 618.173532 101.373407 
L 619.498773 100.941274 
L 620.382267 100.874792 
L 620.824014 100.642105 
L 621.707508 100.409418 
L 622.149255 100.176731 
L 624.357989 99.744598 
L 625.241483 99.578393 
L 626.566724 99.079778 
L 627.891965 98.780609 
L 629.217205 98.082548 
L 629.658952 97.683657 
L 630.984193 96.885873 
L 631.42594 96.553463 
L 632.751181 96.12133 
L 633.634675 95.855402 
L 634.076422 95.622715 
L 634.518169 95.522992 
L 634.959916 95.157341 
L 637.610397 94.027147 
L 639.377385 93.561773 
L 640.260879 93.162881 
L 640.702626 92.930194 
L 641.58612 92.664266 
L 642.027866 92.398338 
L 642.91136 92.232133 
L 646.445336 90.703047 
L 646.887083 90.636565 
L 648.212324 89.772299 
L 648.65407 89.705817 
L 650.421058 89.007756 
L 652.188046 88.575623 
L 652.629793 88.509141 
L 653.07154 88.309695 
L 653.513287 88.276454 
L 654.396781 87.977285 
L 654.838528 87.944044 
L 656.163768 87.412188 
L 657.930756 86.913573 
L 658.81425 86.248753 
L 660.581238 85.251524 
L 661.906478 84.78615 
L 665.440454 83.090859 
L 665.882201 82.858172 
L 666.323948 82.45928 
L 668.532682 81.860942 
L 669.857923 81.262604 
L 670.741417 81.029917 
L 671.183164 80.79723 
L 671.624911 80.431579 
L 673.391899 79.966205 
L 673.833646 79.633795 
L 679.576356 77.539612 
L 680.45985 77.373407 
L 682.668584 76.675346 
L 683.552078 76.309695 
L 684.435572 75.977285 
L 685.319066 75.744598 
L 685.760813 75.545152 
L 686.20256 75.545152 
L 687.086054 75.179501 
L 687.969547 74.647645 
L 691.061776 73.617175 
L 692.828764 73.018837 
L 694.154004 72.719668 
L 695.479245 72.287535 
L 695.920992 72.187812 
L 696.362739 71.888643 
L 697.246233 71.689197 
L 699.013221 71.190582 
L 699.454968 71.157341 
L 700.338462 70.758449 
L 703.43069 69.993906 
L 704.314184 69.628255 
L 708.731653 68.631025 
L 710.056894 67.932964 
L 711.382135 67.534072 
L 715.799604 65.905263 
L 716.241351 65.572853 
L 717.566592 65.273684 
L 718.450086 65.007756 
L 719.33358 64.575623 
L 719.775327 64.176731 
L 720.65882 63.910803 
L 721.100567 63.644875 
L 721.984061 63.545152 
L 725.07629 62.680886 
L 726.401531 62.414958 
L 729.052012 61.550693 
L 730.819 60.719668 
L 736.119963 58.824931 
L 740.095685 57.860942 
L 740.979179 57.495291 
L 746.721889 55.8 
L 747.163636 55.8 
L 747.163636 55.8 
" clip-path="url(#p8153b4ae41)" style="fill: none; stroke: #1f77b4; stroke-width: 1.5; stroke-linecap: square"/>
   </g>
   <g id="line2d_36">
    <path d="M 138.878111 307.8 
L 142.853833 307.700277 
L 146.387808 307.534072 
L 148.154796 307.534072 
L 148.596543 307.401108 
L 150.805278 307.301385 
L 153.455759 307.002216 
L 156.106241 306.902493 
L 156.989735 306.80277 
L 160.081963 306.669806 
L 163.174192 306.570083 
L 165.382927 306.503601 
L 171.125637 306.403878 
L 173.334371 306.337396 
L 177.310094 306.237673 
L 179.077081 306.204432 
L 183.494551 306.104709 
L 185.261538 305.938504 
L 187.028526 305.905263 
L 189.679008 305.80554 
L 191.445996 305.772299 
L 193.65473 305.705817 
L 195.421718 305.539612 
L 199.39744 305.439889 
L 200.280934 305.373407 
L 202.047922 305.273684 
L 204.698403 305.173961 
L 206.465391 305.074238 
L 214.416836 304.575623 
L 217.509065 304.4759 
L 218.834305 304.342936 
L 221.04304 304.243213 
L 225.460509 304.010526 
L 229.877979 303.944044 
L 231.644966 303.744598 
L 233.411954 303.644875 
L 238.27117 303.179501 
L 241.363399 302.81385 
L 242.68864 302.747368 
L 246.222615 302.281994 
L 248.873097 302.215512 
L 250.198338 302.082548 
L 251.523578 301.982825 
L 263.892492 301.018837 
L 264.775986 300.852632 
L 267.426468 300.752909 
L 274.494419 300.320776 
L 277.586647 300.221053 
L 279.353635 300.021607 
L 281.56237 299.921884 
L 284.212851 299.822161 
L 286.421586 299.722438 
L 288.188574 299.689197 
L 290.397308 299.622715 
L 291.280802 299.489751 
L 297.465259 299.390028 
L 298.348753 299.290305 
L 303.649716 299.190582 
L 307.625439 298.991136 
L 310.717667 298.891413 
L 312.484655 298.691967 
L 315.576883 298.592244 
L 316.460377 298.426039 
L 318.669112 298.359557 
L 323.086581 298.293075 
L 324.853569 298.12687 
L 326.620557 298.093629 
L 327.945798 297.993906 
L 329.712785 297.827701 
L 334.130255 297.595014 
L 338.547724 297.495291 
L 342.523446 297.295845 
L 343.848687 297.262604 
L 344.732181 297.12964 
L 346.940916 297.029917 
L 347.82441 296.963435 
L 348.707903 296.896953 
L 349.591397 296.830471 
L 353.56712 296.763989 
L 354.89236 296.664266 
L 366.819528 295.866482 
L 369.028262 295.766759 
L 371.236997 295.700277 
L 377.421454 295.600554 
L 378.304948 295.46759 
L 384.489405 295.367867 
L 388.906874 295.13518 
L 389.790368 295.101939 
L 390.673862 295.002216 
L 392.882597 294.902493 
L 395.091331 294.836011 
L 397.300066 294.736288 
L 399.508801 294.669806 
L 403.484523 294.570083 
L 406.135005 294.47036 
L 412.319462 294.370637 
L 417.178678 294.104709 
L 418.945666 294.038227 
L 420.270906 293.938504 
L 426.455364 293.838781 
L 429.105845 293.739058 
L 437.05729 293.639335 
L 438.824278 293.606094 
L 444.125241 293.539612 
L 445.008735 293.47313 
L 451.193192 293.373407 
L 452.960179 293.340166 
L 464.4456 293.240443 
L 467.096081 293.14072 
L 485.649452 293.040997 
L 487.858187 292.974515 
L 499.343607 292.908033 
L 500.227101 292.841551 
L 502.435836 292.775069 
L 503.761077 292.642105 
L 506.411558 292.542382 
L 509.503787 292.409418 
L 513.479509 292.309695 
L 515.688244 292.243213 
L 518.780472 292.14349 
L 522.314448 291.977285 
L 524.523182 291.877562 
L 526.29017 291.844321 
L 530.265893 291.744598 
L 532.03288 291.711357 
L 537.77559 291.611634 
L 539.542578 291.578393 
L 541.751313 291.47867 
L 544.401794 291.378947 
L 547.494023 291.312465 
L 548.377517 291.245983 
L 558.979443 291.14626 
L 564.722153 290.81385 
L 566.930888 290.747368 
L 567.814382 290.647645 
L 568.697876 290.581163 
L 572.231851 290.48144 
L 574.882333 290.381717 
L 579.299802 290.281994 
L 581.508537 290.049307 
L 585.926006 289.949584 
L 586.8095 289.849861 
L 591.226969 289.750139 
L 593.435704 289.683657 
L 598.29492 289.650416 
L 599.178414 289.550693 
L 604.03763 289.45097 
L 604.921124 289.384488 
L 614.639557 289.284765 
L 617.290038 289.185042 
L 623.916242 289.085319 
L 625.68323 289.052078 
L 629.658952 288.985596 
L 630.542446 288.885873 
L 636.285156 288.78615 
L 638.493891 288.719668 
L 646.445336 288.619945 
L 647.770577 288.520222 
L 649.095817 288.420499 
L 650.421058 288.320776 
L 657.047262 288.221053 
L 659.697744 288.12133 
L 671.624911 288.021607 
L 675.600633 287.822161 
L 680.901597 287.722438 
L 681.78509 287.655956 
L 688.411294 287.589474 
L 689.294788 287.522992 
L 694.154004 287.423269 
L 695.920992 287.390028 
L 702.105449 287.290305 
L 704.755931 287.190582 
L 712.265629 287.090859 
L 714.032616 287.057618 
L 718.008339 286.957895 
L 721.542314 286.79169 
L 726.401531 286.691967 
L 729.493759 286.559003 
L 733.469481 286.45928 
L 734.352975 286.392798 
L 743.187914 286.293075 
L 745.396649 286.226593 
L 747.163636 286.160111 
L 747.163636 286.160111 
" clip-path="url(#p8153b4ae41)" style="fill: none; stroke: #ff7f0e; stroke-width: 1.5; stroke-linecap: square"/>
   </g>
   <g id="patch_3">
    <path d="M 108 320.4 
L 108 43.2 
" style="fill: none; stroke: #a9a9a9; stroke-width: 0.8; stroke-linejoin: miter; stroke-linecap: square"/>
   </g>
   <g id="patch_4">
    <path d="M 777.6 320.4 
L 777.6 43.2 
" style="fill: none"/>
   </g>
   <g id="patch_5">
    <path d="M 108 320.4 
L 777.6 320.4 
" style="fill: none; stroke: #a9a9a9; stroke-width: 0.8; stroke-linejoin: miter; stroke-linecap: square"/>
   </g>
   <g id="patch_6">
    <path d="M 108 43.2 
L 777.6 43.2 
" style="fill: none"/>
   </g>
   <g id="text_18">
    <!-- get_subscribe history -->
    <g style="fill: #a9a9a9" transform="translate(378.6075 37.2) scale(0.12 -0.12)">
     <defs>
      <path id="DejaVuSans-67" d="M 2906 1791 
Q 2906 2416 2648 2759 
Q 2391 3103 1925 3103 
Q 1463 3103 1205 2759 
Q 947 2416 947 1791 
Q 947 1169 1205 825 
Q 1463 481 1925 481 
Q 2391 481 2648 825 
Q 2906 1169 2906 1791 
z
M 3481 434 
Q 3481 -459 3084 -895 
Q 2688 -1331 1869 -1331 
Q 1566 -1331 1297 -1286 
Q 1028 -1241 775 -1147 
L 775 -588 
Q 1028 -725 1275 -790 
Q 1522 -856 1778 -856 
Q 2344 -856 2625 -561 
Q 2906 -266 2906 331 
L 2906 616 
Q 2728 306 2450 153 
Q 2172 0 1784 0 
Q 1141 0 747 490 
Q 353 981 353 1791 
Q 353 2603 747 3093 
Q 1141 3584 1784 3584 
Q 2172 3584 2450 3431 
Q 2728 3278 2906 2969 
L 2906 3500 
L 3481 3500 
L 3481 434 
z
" transform="scale(0.015625)"/>
      <path id="DejaVuSans-65" d="M 3597 1894 
L 3597 1613 
L 953 1613 
Q 991 1019 1311 708 
Q 1631 397 2203 397 
Q 2534 397 2845 478 
Q 3156 559 3463 722 
L 3463 178 
Q 3153 47 2828 -22 
Q 2503 -91 2169 -91 
Q 1331 -91 842 396 
Q 353 884 353 1716 
Q 353 2575 817 3079 
Q 1281 3584 2069 3584 
Q 2775 3584 3186 3129 
Q 3597 2675 3597 1894 
z
M 3022 2063 
Q 3016 2534 2758 2815 
Q 2500 3097 2075 3097 
Q 1594 3097 1305 2825 
Q 1016 2553 972 2059 
L 3022 2063 
z
" transform="scale(0.015625)"/>
      <path id="DejaVuSans-74" d="M 1172 4494 
L 1172 3500 
L 2356 3500 
L 2356 3053 
L 1172 3053 
L 1172 1153 
Q 1172 725 1289 603 
Q 1406 481 1766 481 
L 2356 481 
L 2356 0 
L 1766 0 
Q 1100 0 847 248 
Q 594 497 594 1153 
L 594 3053 
L 172 3053 
L 172 3500 
L 594 3500 
L 594 4494 
L 1172 4494 
z
" transform="scale(0.015625)"/>
      <path id="DejaVuSans-5f" d="M 3263 -1063 
L 3263 -1509 
L -63 -1509 
L -63 -1063 
L 3263 -1063 
z
" transform="scale(0.015625)"/>
      <path id="DejaVuSans-73" d="M 2834 3397 
L 2834 2853 
Q 2591 2978 2328 3040 
Q 2066 3103 1784 3103 
Q 1356 3103 1142 2972 
Q 928 2841 928 2578 
Q 928 2378 1081 2264 
Q 1234 2150 1697 2047 
L 1894 2003 
Q 2506 1872 2764 1633 
Q 3022 1394 3022 966 
Q 3022 478 2636 193 
Q 2250 -91 1575 -91 
Q 1294 -91 989 -36 
Q 684 19 347 128 
L 347 722 
Q 666 556 975 473 
Q 1284 391 1588 391 
Q 1994 391 2212 530 
Q 2431 669 2431 922 
Q 2431 1156 2273 1281 
Q 2116 1406 1581 1522 
L 1381 1569 
Q 847 1681 609 1914 
Q 372 2147 372 2553 
Q 372 3047 722 3315 
Q 1072 3584 1716 3584 
Q 2034 3584 2315 3537 
Q 2597 3491 2834 3397 
z
" transform="scale(0.015625)"/>
      <path id="DejaVuSans-75" d="M 544 1381 
L 544 3500 
L 1119 3500 
L 1119 1403 
Q 1119 906 1312 657 
Q 1506 409 1894 409 
Q 2359 409 2629 706 
Q 2900 1003 2900 1516 
L 2900 3500 
L 3475 3500 
L 3475 0 
L 2900 0 
L 2900 538 
Q 2691 219 2414 64 
Q 2138 -91 1772 -91 
Q 1169 -91 856 284 
Q 544 659 544 1381 
z
M 1991 3584 
L 1991 3584 
z
" transform="scale(0.015625)"/>
      <path id="DejaVuSans-62" d="M 3116 1747 
Q 3116 2381 2855 2742 
Q 2594 3103 2138 3103 
Q 1681 3103 1420 2742 
Q 1159 2381 1159 1747 
Q 1159 1113 1420 752 
Q 1681 391 2138 391 
Q 2594 391 2855 752 
Q 3116 1113 3116 1747 
z
M 1159 2969 
Q 1341 3281 1617 3432 
Q 1894 3584 2278 3584 
Q 2916 3584 3314 3078 
Q 3713 2572 3713 1747 
Q 3713 922 3314 415 
Q 2916 -91 2278 -91 
Q 1894 -91 1617 61 
Q 1341 213 1159 525 
L 1159 0 
L 581 0 
L 581 4863 
L 1159 4863 
L 1159 2969 
z
" transform="scale(0.015625)"/>
      <path id="DejaVuSans-63" d="M 3122 3366 
L 3122 2828 
Q 2878 2963 2633 3030 
Q 2388 3097 2138 3097 
Q 1578 3097 1268 2742 
Q 959 2388 959 1747 
Q 959 1106 1268 751 
Q 1578 397 2138 397 
Q 2388 397 2633 464 
Q 2878 531 3122 666 
L 3122 134 
Q 2881 22 2623 -34 
Q 2366 -91 2075 -91 
Q 1284 -91 818 406 
Q 353 903 353 1747 
Q 353 2603 823 3093 
Q 1294 3584 2113 3584 
Q 2378 3584 2631 3529 
Q 2884 3475 3122 3366 
z
" transform="scale(0.015625)"/>
      <path id="DejaVuSans-72" d="M 2631 2963 
Q 2534 3019 2420 3045 
Q 2306 3072 2169 3072 
Q 1681 3072 1420 2755 
Q 1159 2438 1159 1844 
L 1159 0 
L 581 0 
L 581 3500 
L 1159 3500 
L 1159 2956 
Q 1341 3275 1631 3429 
Q 1922 3584 2338 3584 
Q 2397 3584 2469 3576 
Q 2541 3569 2628 3553 
L 2631 2963 
z
" transform="scale(0.015625)"/>
      <path id="DejaVuSans-69" d="M 603 3500 
L 1178 3500 
L 1178 0 
L 603 0 
L 603 3500 
z
M 603 4863 
L 1178 4863 
L 1178 4134 
L 603 4134 
L 603 4863 
z
" transform="scale(0.015625)"/>
      <path id="DejaVuSans-20" transform="scale(0.015625)"/>
      <path id="DejaVuSans-68" d="M 3513 2113 
L 3513 0 
L 2938 0 
L 2938 2094 
Q 2938 2591 2744 2837 
Q 2550 3084 2163 3084 
Q 1697 3084 1428 2787 
Q 1159 2491 1159 1978 
L 1159 0 
L 581 0 
L 581 4863 
L 1159 4863 
L 1159 2956 
Q 1366 3272 1645 3428 
Q 1925 3584 2291 3584 
Q 2894 3584 3203 3211 
Q 3513 2838 3513 2113 
z
" transform="scale(0.015625)"/>
      <path id="DejaVuSans-6f" d="M 1959 3097 
Q 1497 3097 1228 2736 
Q 959 2375 959 1747 
Q 959 1119 1226 758 
Q 1494 397 1959 397 
Q 2419 397 2687 759 
Q 2956 1122 2956 1747 
Q 2956 2369 2687 2733 
Q 2419 3097 1959 3097 
z
M 1959 3584 
Q 2709 3584 3137 3096 
Q 3566 2609 3566 1747 
Q 3566 888 3137 398 
Q 2709 -91 1959 -91 
Q 1206 -91 779 398 
Q 353 888 353 1747 
Q 353 2609 779 3096 
Q 1206 3584 1959 3584 
z
" transform="scale(0.015625)"/>
      <path id="DejaVuSans-79" d="M 2059 -325 
Q 1816 -950 1584 -1140 
Q 1353 -1331 966 -1331 
L 506 -1331 
L 506 -850 
L 844 -850 
Q 1081 -850 1212 -737 
Q 1344 -625 1503 -206 
L 1606 56 
L 191 3500 
L 800 3500 
L 1894 763 
L 2988 3500 
L 3597 3500 
L 2059 -325 
z
" transform="scale(0.015625)"/>
     </defs>
     <use xlink:href="#DejaVuSans-67"/>
     <use xlink:href="#DejaVuSans-65" transform="translate(63.476562 0)"/>
     <use xlink:href="#DejaVuSans-74" transform="translate(125 0)"/>
     <use xlink:href="#DejaVuSans-5f" transform="translate(164.208984 0)"/>
     <use xlink:href="#DejaVuSans-73" transform="translate(214.208984 0)"/>
     <use xlink:href="#DejaVuSans-75" transform="translate(266.308594 0)"/>
     <use xlink:href="#DejaVuSans-62" transform="translate(329.6875 0)"/>
     <use xlink:href="#DejaVuSans-73" transform="translate(393.164062 0)"/>
     <use xlink:href="#DejaVuSans-63" transform="translate(445.263672 0)"/>
     <use xlink:href="#DejaVuSans-72" transform="translate(500.244141 0)"/>
     <use xlink:href="#DejaVuSans-69" transform="translate(541.357422 0)"/>
     <use xlink:href="#DejaVuSans-62" transform="translate(569.140625 0)"/>
     <use xlink:href="#DejaVuSans-65" transform="translate(632.617188 0)"/>
     <use xlink:href="#DejaVuSans-20" transform="translate(694.140625 0)"/>
     <use xlink:href="#DejaVuSans-68" transform="translate(725.927734 0)"/>
     <use xlink:href="#DejaVuSans-69" transform="translate(789.306641 0)"/>
     <use xlink:href="#DejaVuSans-73" transform="translate(817.089844 0)"/>
     <use xlink:href="#DejaVuSans-74" transform="translate(869.189453 0)"/>
     <use xlink:href="#DejaVuSans-6f" transform="translate(908.398438 0)"/>
     <use xlink:href="#DejaVuSans-72" transform="translate(969.580078 0)"/>
     <use xlink:href="#DejaVuSans-79" transform="translate(1010.693359 0)"/>
    </g>
   </g>
   <g id="legend_1">
    <g id="line2d_37">
     <path d="M 815.08 328.498438 
L 825.08 328.498438 
L 835.08 328.498438 
" style="fill: none; stroke: #1f77b4; stroke-width: 1.5; stroke-linecap: square"/>
    </g>
    <g id="text_19">
     <!-- star -->
     <g style="fill: #a9a9a9" transform="translate(843.08 331.998438) scale(0.1 -0.1)">
      <defs>
       <path id="DejaVuSans-61" d="M 2194 1759 
Q 1497 1759 1228 1600 
Q 959 1441 959 1056 
Q 959 750 1161 570 
Q 1363 391 1709 391 
Q 2188 391 2477 730 
Q 2766 1069 2766 1631 
L 2766 1759 
L 2194 1759 
z
M 3341 1997 
L 3341 0 
L 2766 0 
L 2766 531 
Q 2569 213 2275 61 
Q 1981 -91 1556 -91 
Q 1019 -91 701 211 
Q 384 513 384 1019 
Q 384 1609 779 1909 
Q 1175 2209 1959 2209 
L 2766 2209 
L 2766 2266 
Q 2766 2663 2505 2880 
Q 2244 3097 1772 3097 
Q 1472 3097 1187 3025 
Q 903 2953 641 2809 
L 641 3341 
Q 956 3463 1253 3523 
Q 1550 3584 1831 3584 
Q 2591 3584 2966 3190 
Q 3341 2797 3341 1997 
z
" transform="scale(0.015625)"/>
      </defs>
      <use xlink:href="#DejaVuSans-73"/>
      <use xlink:href="#DejaVuSans-74" transform="translate(52.099609 0)"/>
      <use xlink:href="#DejaVuSans-61" transform="translate(91.308594 0)"/>
      <use xlink:href="#DejaVuSans-72" transform="translate(152.587891 0)"/>
     </g>
    </g>
    <g id="line2d_38">
     <path d="M 815.08 343.176562 
L 825.08 343.176562 
L 835.08 343.176562 
" style="fill: none; stroke: #ff7f0e; stroke-width: 1.5; stroke-linecap: square"/>
    </g>
    <g id="text_20">
     <!-- fork -->
     <g style="fill: #a9a9a9" transform="translate(843.08 346.676562) scale(0.1 -0.1)">
      <defs>
       <path id="DejaVuSans-66" d="M 2375 4863 
L 2375 4384 
L 1825 4384 
Q 1516 4384 1395 4259 
Q 1275 4134 1275 3809 
L 1275 3500 
L 2222 3500 
L 2222 3053 
L 1275 3053 
L 1275 0 
L 697 0 
L 697 3053 
L 147 3053 
L 147 3500 
L 697 3500 
L 697 3744 
Q 697 4328 969 4595 
Q 1241 4863 1831 4863 
L 2375 4863 
z
" transform="scale(0.015625)"/>
       <path id="DejaVuSans-6b" d="M 581 4863 
L 1159 4863 
L 1159 1991 
L 2875 3500 
L 3609 3500 
L 1753 1863 
L 3688 0 
L 2938 0 
L 1159 1709 
L 1159 0 
L 581 0 
L 581 4863 
z
" transform="scale(0.015625)"/>
      </defs>
      <use xlink:href="#DejaVuSans-66"/>
      <use xlink:href="#DejaVuSans-6f" transform="translate(35.205078 0)"/>
      <use xlink:href="#DejaVuSans-72" transform="translate(96.386719 0)"/>
      <use xlink:href="#DejaVuSans-6b" transform="translate(137.5 0)"/>
     </g>
    </g>
   </g>
  </g>
 </g>
 <defs>
  <clipPath id="p8153b4ae41">
   <rect x="108" y="43.2" width="669.6" height="277.2"/>
  </clipPath>
 </defs>
</svg>
